<mxfile host="65bd71144e">
    <diagram id="FW585oK7MWhK6lLG_Wn-" name="分代算法">
        <mxGraphModel dx="1616" dy="986" grid="1" gridSize="10" guides="1" tooltips="1" connect="1" arrows="1" fold="1" page="1" pageScale="1" pageWidth="827" pageHeight="1169" math="0" shadow="0">
            <root>
                <mxCell id="0"/>
                <mxCell id="1" parent="0"/>
                <mxCell id="4" value="新生代复制算法" style="shape=note2;boundedLbl=1;whiteSpace=wrap;html=1;size=25;verticalAlign=top;align=center;fontSize=15;" vertex="1" parent="1">
                    <mxGeometry x="30" y="20" width="170" height="90" as="geometry"/>
                </mxCell>
                <mxCell id="5" value="Eden 8" style="rounded=0;whiteSpace=wrap;html=1;fontSize=15;" vertex="1" parent="1">
                    <mxGeometry x="239" y="40" width="290" height="60" as="geometry"/>
                </mxCell>
                <mxCell id="6" value="1" style="rounded=0;whiteSpace=wrap;html=1;fontSize=15;" vertex="1" parent="1">
                    <mxGeometry x="529" y="40" width="30" height="60" as="geometry"/>
                </mxCell>
                <mxCell id="8" value="1" style="rounded=0;whiteSpace=wrap;html=1;fontSize=15;" vertex="1" parent="1">
                    <mxGeometry x="559" y="40" width="30" height="60" as="geometry"/>
                </mxCell>
                <mxCell id="9" value="From Survior" style="text;html=1;align=center;verticalAlign=middle;resizable=0;points=[];autosize=1;strokeColor=none;fillColor=none;fontSize=15;" vertex="1" parent="1">
                    <mxGeometry x="480" width="100" height="20" as="geometry"/>
                </mxCell>
                <mxCell id="10" value="To Survivor" style="text;html=1;align=center;verticalAlign=middle;resizable=0;points=[];autosize=1;strokeColor=none;fillColor=none;fontSize=15;" vertex="1" parent="1">
                    <mxGeometry x="594" width="90" height="20" as="geometry"/>
                </mxCell>
                <mxCell id="13" value="" style="edgeStyle=none;html=1;fontSize=15;" edge="1" parent="1" source="11" target="12">
                    <mxGeometry relative="1" as="geometry"/>
                </mxCell>
                <mxCell id="11" value="把Eden + From Survivor存活的对象放入To Survivor中" style="rounded=1;whiteSpace=wrap;html=1;fontSize=15;" vertex="1" parent="1">
                    <mxGeometry x="274" y="130" width="206" height="80" as="geometry"/>
                </mxCell>
                <mxCell id="15" value="" style="edgeStyle=none;html=1;fontSize=15;" edge="1" parent="1" source="12" target="14">
                    <mxGeometry relative="1" as="geometry"/>
                </mxCell>
                <mxCell id="20" value="年龄+1" style="edgeLabel;html=1;align=center;verticalAlign=middle;resizable=0;points=[];fontSize=15;" vertex="1" connectable="0" parent="15">
                    <mxGeometry x="-0.1611" y="4" relative="1" as="geometry">
                        <mxPoint as="offset"/>
                    </mxGeometry>
                </mxCell>
                <mxCell id="12" value="将Eden + From Survivor 清空" style="whiteSpace=wrap;html=1;fontSize=15;rounded=1;" vertex="1" parent="1">
                    <mxGeometry x="280.5" y="270" width="193" height="60" as="geometry"/>
                </mxCell>
                <mxCell id="22" value="" style="edgeStyle=none;html=1;fontSize=15;" edge="1" parent="1" source="14" target="21">
                    <mxGeometry relative="1" as="geometry"/>
                </mxCell>
                <mxCell id="14" value="&lt;br&gt;&lt;span style=&quot;color: rgb(240 , 240 , 240) ; font-family: &amp;#34;helvetica&amp;#34; ; font-size: 15px ; font-style: normal ; font-weight: 400 ; letter-spacing: normal ; text-align: center ; text-indent: 0px ; text-transform: none ; word-spacing: 0px ; background-color: rgb(42 , 42 , 42) ; display: inline ; float: none&quot;&gt;From Survivor和To Survivor分区交换，From Survivor 变ToSurvivor，To Survivor变From Survivor&lt;/span&gt;&lt;br&gt;" style="whiteSpace=wrap;html=1;fontSize=15;rounded=1;" vertex="1" parent="1">
                    <mxGeometry x="250.5" y="460" width="253" height="90" as="geometry"/>
                </mxCell>
                <mxCell id="24" value="是" style="edgeStyle=none;html=1;fontSize=15;" edge="1" parent="1" source="21" target="23">
                    <mxGeometry relative="1" as="geometry"/>
                </mxCell>
                <mxCell id="28" value="否" style="edgeStyle=orthogonalEdgeStyle;html=1;fontSize=15;entryX=0;entryY=0.5;entryDx=0;entryDy=0;" edge="1" parent="1" source="21" target="11">
                    <mxGeometry relative="1" as="geometry">
                        <mxPoint x="190" y="160" as="targetPoint"/>
                        <Array as="points">
                            <mxPoint x="180" y="688"/>
                            <mxPoint x="180" y="170"/>
                        </Array>
                    </mxGeometry>
                </mxCell>
                <mxCell id="21" value="年龄 &amp;gt;=15?" style="rhombus;whiteSpace=wrap;html=1;fontSize=15;rounded=1;" vertex="1" parent="1">
                    <mxGeometry x="305.5" y="640" width="143" height="95" as="geometry"/>
                </mxCell>
                <mxCell id="23" value="老年代" style="whiteSpace=wrap;html=1;fontSize=15;rounded=1;" vertex="1" parent="1">
                    <mxGeometry x="317" y="832.5" width="120" height="60" as="geometry"/>
                </mxCell>
            </root>
        </mxGraphModel>
    </diagram>
</mxfile>